# xmcd CD database file
#
# Track frame offsets:
#	150
#	24027
#	50864
#	74637
#	104765
#	111131
#	136104
#	157083
#	179679
#	187917
#	211302
#	224243
#
# Disc length: 3263 seconds
#
# Revision: 0
# Processed by: cddbd v1.5.1PL2 Copyright (c) Steve Scherf et al.
# Submitted via: CDex 1.51
#
DISCID=be0cbd0c
DTITLE=John McNeil - East Coast Cool
DYEAR=2006
DGENRE=Jazz
TTITLE0=Deadline 
TTITLE1=A Time to Go
TTITLE2=Brother Frank
TTITLE3=Bernie's Tune 
TTITLE4=Duet # 1
TTITLE5=Delusions
TTITLE6=Wanwood
TTITLE7=Internal Hurdles
TTITLE8=Duet # 2
TTITLE9=Waltz Helios
TTITLE10=Schoenberg's Piano Concerto 
TTITLE11=GAB
EXTD=YEAR: 2006
EXTT0=
EXTT1=
EXTT2=
EXTT3=
EXTT4=
EXTT5=
EXTT6=
EXTT7=
EXTT8=
EXTT9=
EXTT10=
EXTT11=
PLAYORDER=
